name C:\Users\u0101727\Documents\MyRepositories\upper-imu-dc\Results\main_mocap_tracking\Case_6\angularVelocities.mot
datacolumns 4
datarows 82
range 3.51000000 4.32000000
endheader 
time	radius_imu_x	radius_imu_y	radius_imu_z	
          3.51000000	          0.05042712	         -0.03088432	          0.09834429	
          3.52000000	          0.06394228	         -0.07903689	          0.09647739	
          3.53000000	          0.07711972	         -0.12806731	          0.09394835	
          3.54000000	          0.08850835	         -0.16684098	          0.09077543	
          3.55000000	          0.09699297	         -0.18689985	          0.08675713	
          3.56000000	          0.10195689	         -0.18334604	          0.08154775	
          3.57000000	          0.10333773	         -0.15500738	          0.07488788	
          3.58000000	          0.10166817	         -0.10492934	          0.06687936	
          3.59000000	          0.09796543	         -0.04051246	          0.05807690	
          3.60000000	          0.09337156	          0.02802180	          0.04922281	
          3.61000000	          0.08876001	          0.09081871	          0.04086468	
          3.62000000	          0.08461805	          0.14132221	          0.03327179	
          3.63000000	          0.08115388	          0.17699920	          0.02659684	
          3.64000000	          0.07840805	          0.19801606	          0.02099506	
          3.65000000	          0.07628252	          0.20597997	          0.01662271	
          3.66000000	          0.07456159	          0.20337188	          0.01362525	
          3.67000000	          0.07304609	          0.19243448	          0.01219706	
          3.68000000	          0.07173257	          0.17385392	          0.01264209	
          3.69000000	          0.07086164	          0.14696985	          0.01535134	
          3.70000000	          0.07080631	          0.11166248	          0.02072118	
          3.71000000	          0.07193656	          0.06952626	          0.02903716	
          3.72000000	          0.07457147	          0.02280217	          0.04034863	
          3.73000000	          0.07899516	         -0.02709699	          0.05442501	
          3.74000000	          0.08544895	         -0.07962319	          0.07089435	
          3.75000000	          0.09410389	         -0.13408109	          0.08945891	
          3.76000000	          0.10499807	         -0.18860207	          0.10993975	
          3.77000000	          0.11791013	         -0.23982871	          0.13210244	
          3.78000000	          0.13227242	         -0.28370668	          0.15545963	
          3.79000000	          0.14722925	         -0.31710743	          0.17926512	
          3.80000000	          0.16183993	         -0.33905271	          0.20274109	
          3.81000000	          0.17531524	         -0.35016497	          0.22537670	
          3.82000000	          0.18710066	         -0.34989764	          0.24707729	
          3.83000000	          0.19677591	         -0.33351994	          0.26809821	
          3.84000000	          0.20404585	         -0.29345356	          0.28889322	
          3.85000000	          0.20899395	         -0.22623306	          0.30999654	
          3.86000000	          0.21227975	         -0.13822252	          0.33189500	
          3.87000000	          0.21493234	         -0.04356001	          0.35484781	
          3.88000000	          0.21790718	          0.04244557	          0.37876444	
          3.89000000	          0.22177453	          0.10773949	          0.40326147	
          3.90000000	          0.22666221	          0.14471999	          0.42790979	
          3.91000000	          0.23238884	          0.15081639	          0.45256625	
          3.92000000	          0.23864966	          0.12913102	          0.47754193	
          3.93000000	          0.24512948	          0.08747113	          0.50342510	
          3.94000000	          0.25158535	          0.03501932	          0.53073175	
          3.95000000	          0.25798004	         -0.02131783	          0.55970371	
          3.96000000	          0.26454628	         -0.07843193	          0.59030619	
          3.97000000	          0.27162580	         -0.13620090	          0.62227764	
          3.98000000	          0.27940731	         -0.19544496	          0.65520075	
          3.99000000	          0.28783534	         -0.25570710	          0.68865078	
          4.00000000	          0.29673571	         -0.31409059	          0.72235973	
          4.01000000	          0.30598529	         -0.36603428	          0.75628152	
          4.02000000	          0.31563549	         -0.40730235	          0.79055477	
          4.03000000	          0.32601503	         -0.43528097	          0.82542239	
          4.04000000	          0.33777528	         -0.44884882	          0.86113325	
          4.05000000	          0.35179574	         -0.44839301	          0.89781887	
          4.06000000	          0.36899138	         -0.43683667	          0.93534184	
          4.07000000	          0.39011281	         -0.41995339	          0.97324832	
          4.08000000	          0.41550753	         -0.40484896	          1.01083177	
          4.09000000	          0.44487248	         -0.39808069	          1.04717163	
          4.10000000	          0.47728292	         -0.40497595	          1.08122052	
          4.11000000	          0.51162769	         -0.42994073	          1.11199618	
          4.12000000	          0.54702504	         -0.47607900	          1.13872209	
          4.13000000	          0.58274458	         -0.54267000	          1.16077223	
          4.14000000	          0.61781500	         -0.62218486	          1.17755383	
          4.15000000	          0.65088857	         -0.70043523	          1.18849364	
          4.16000000	          0.68072725	         -0.76267955	          1.19322027	
          4.17000000	          0.70712620	         -0.80392115	          1.19195218	
          4.18000000	          0.73127837	         -0.83230057	          1.18562878	
          4.19000000	          0.75492738	         -0.85905777	          1.17547147	
          4.20000000	          0.77929016	         -0.88852449	          1.16248261	
          4.21000000	          0.80489746	         -0.92056254	          1.14734502	
          4.22000000	          0.83192746	         -0.95589783	          1.13049425	
          4.23000000	          0.86013127	         -0.99292947	          1.11211659	
          4.24000000	          0.88841789	         -1.02141975	          1.09217840	
          4.25000000	          0.91468449	         -1.02211997	          1.07054213	
          4.26000000	          0.93634495	         -0.97395243	          1.04717496	
          4.27000000	          0.95165103	         -0.86586658	          1.02253205	
          4.28000000	          0.96094572	         -0.70533057	          0.99782408	
          4.29000000	          0.96675306	         -0.51638335	          0.97481366	
          4.30000000	          0.97281700	         -0.33150700	          0.95534574	
          4.31000000	          0.98272213	         -0.18233371	          0.94083664	
          4.32000000	          0.99847225	         -0.08886274	          0.93174068	
